<?xml version="1.0" encoding="UTF-8"?>
<svg width="1200pt" height="1200pt" version="1.1" viewBox="0 0 1200 1200" xmlns="http://www.w3.org/2000/svg">
 <path d="m603.48 295.44c-301.56 0-546 135.24-546 302.16 0 166.92 244.44 302.16 546 302.16 301.56 0 546-135.24 546-302.16 0-166.92-244.44-302.16-546-302.16zm527.52 293.64h-257.52c-1.6797-44.762-16.801-87.84-44.52-127.92h235.2v-1.5586c41.281 39.602 64.32 83.762 66.84 129.48zm-518.52-266.76c21.602 8.7617 69.48 30.238 116.76 64.68 24.602 17.879 45.48 36.602 63 56.16h-179.76zm-18 120.84h-168c58.441-64.559 137.76-105.72 168-120zm0 18v127.92l-235.8-0.003906c2.8789-48.719 23.879-91.559 52.441-127.92zm0 146.04v127.92h-186.36c-28.078-36-48.121-78.719-49.68-127.92zm0 145.92v117.96c-30.602-13.441-112.32-53.281-171.12-117.96zm18 0h170.04c-60 61.922-139.68 103.2-170.04 117.6zm0-18v-127.92h242.88c-2.6406 48.238-25.32 91.199-56.398 127.92zm0-146.04v-127.92h194.76c30.359 39.719 46.559 82.559 48.359 127.92zm433.2-145.92h-230.28c-20.281-25.078-45.602-48.84-75.961-70.922-37.68-27.359-74.879-46.559-100.44-58.078 129.36 4.6797 249.72 34.559 341.76 85.559 24.48 13.441 46.082 28.082 64.922 43.441zm-473.76-129.24c-24.719 12.48-62.762 33.719-101.16 63.602-26.879 20.879-49.68 42.84-68.52 65.641l-240.96-0.003906c18.719-15.359 40.441-30 64.801-43.559 93.117-51.48 214.92-81.48 345.84-85.68zm-430.44 146.88v0.35938h246.96c-29.16 40.801-45.48 84-48 127.92l-264.6-0.003906c2.5195-45.238 25.199-89.039 65.641-128.28zm-65.641 146.4h264.48c1.3203 44.398 16.68 87.48 45.238 127.92h-243.12c-40.801-39.121-63.723-82.801-66.602-127.92zm86.879 145.92h236.64c19.32 23.52 43.078 46.078 71.52 67.199 38.762 28.922 77.039 49.078 101.76 60.719-131.28-4.0781-253.44-34.078-346.68-85.68-23.641-13.078-44.762-27.238-63.242-42.238zm469.44 128.04c25.32-12.602 66.238-34.922 107.52-66.238 26.281-19.922 48.719-40.559 67.441-61.801h236.88c-18.359 15-39.602 29.16-63.359 42.359-93.602 51.84-216.48 81.961-348.48 85.68zm432-145.8v-0.35938h-242.04c31.801-41.398 49.199-84.48 51.359-127.92h257.52c-2.8789 45.363-25.922 89.16-66.84 128.28z"/>
</svg>
